ply
format ascii 1.0
comment VCGLIB generated
element vertex 400
property float x
property float y
property float z
element face 800
property list uchar int vertex_indices
end_header
0.920395 65.3503 -47.3301
11.3472 64.6978 -46.8608
5.83952 -3.66602 -45.5355
-7.01315 64.2961 -46.7401
-4.38208 -4.7471 -44.8217
-3.93055 58.3951 -45.3048
8.19483 57.9618 -45.4744
-6.74043 66.566 -45.1981
7.91871 -7.09386 -43.0636
-16.7728 64.7316 -43.1604
21.926 64.4931 -43.2451
11.7513 66.6104 -45.4392
-12.9264 58.4812 -42.7588
17.3217 -4.68135 -42.9822
20.0588 58.4959 -41.9412
-6.56432 66.4567 -43.0748
6.11053 66.501 -43.8901
-3.45329 1.60833 -41.1224
-4.28137 64.612 -41.6404
-11.2516 -5.06119 -42.8183
2.88964 -2.77741 -41.7671
7.2461 64.4749 -42.0131
18.9377 66.8628 -41.4622
-8.74482 -3.37837 -39.6532
-14.2308 64.1466 -38.1075
25.3386 66.0339 -40.3399
-0.207717 -9.70511 -39.9149
-17.7861 -5.20952 -39.7588
15.1779 64.0544 -40.1112
-25.8506 65.0279 -37.0518
-0.938982 -12.9931 -37.9212
-2.40443 -7.5698 -37.778
12.341 -1.39504 -40.6611
23.9042 -4.84651 -39.8153
-17.6736 66.6176 -39.0933
9.51748 -12.4103 -37.7719
-13.409 -9.87613 -36.0676
8.09175 -6.22162 -39.4996
29.9739 58.272 -35.7046
-6.84574 -14.0656 -35.2895
11.6747 -9.51762 -39.0232
-17.0972 -3.13952 -35.5904
-21.8152 58.0889 -37.703
30.3091 64.6529 -37.9547
9.9954 -14.0364 -35.44
22.5246 -9.57707 -34.1926
17.7222 -13.0426 -34.5061
-23.8156 -2.14877 -35.3904
34.9558 65.1123 -33.5787
-15.271 -12.7497 -32.775
15.0487 -7.15668 -36.5996
18.4626 -2.97556 -38.4557
22.1448 62.1704 -36.8859
-23.204 -1.40683 -30.607
-20.1115 66.4614 -40.0056
-23.9565 -9.89116 -27.738
13.6846 -8.87997 -33.0752
-28.2796 -4.70268 -30.6386
26.6384 64.453 -33.7018
-31.3346 66.3906 -29.3489
-20.7632 -14.0943 -26.214
-17.3443 -7.72639 -31.4806
-29.3811 58.4433 -30.4637
31.691 -3.18893 -34.072
-25.675 63.7924 -29.1909
-20.4344 65.2129 -34.2026
22.6319 -7.07674 -32.7936
28.0444 -2.70768 -32.1481
38.3464 58.0439 -25.3945
-28.1246 0.286815 -24.5603
-32.1808 64.3305 -29.9351
32.7813 -4.15779 -26.6708
23.6406 -14.0695 -28.5043
29.9564 -9.47702 -27.8431
35.9308 -4.81606 -29.0224
28.9366 66.5256 -33.4227
-26.0927 -6.0606 -24.3395
-30.3282 64.955 -22.5344
40.4297 64.3995 -25.5232
-8.80087 -9.19184 -33.0353
-34.723 65.8172 -25.4926
8.67914 -13.0891 -23.6301
14.5049 -11.7995 -19.8487
26.7749 -13.1104 -28.1249
-34.0794 58.2439 -22.9039
32.5134 63.1287 -27.5341
-25.8929 -14.1223 -18.356
32.7673 -13.9006 -16.8789
5.78712 -11.5792 -18.868
23.4246 -12.5904 -21.2866
-34.684 66.689 -22.3915
-32.7042 -3.38923 -24.2706
-33.0739 64.3424 -16.0656
35.8306 65.0476 -22.3072
-24.6959 -8.75948 -18.1022
-30.8299 -2.8576 -18.9143
35.4329 -9.44285 -18.7082
33.149 66.985 -31.4794
-29.0223 -9.95246 -19.0022
-29.3822 -6.35187 -16.3078
-36.8099 57.9373 -15.5564
-6.54522 -11.6464 -17.9537
-33.7192 -7.28878 -17.1727
40.825 -5.07155 -20.3249
-38.2091 65.7593 -17.7947
-38.8053 66.5875 -11.1281
43.9195 66.3517 -12.8104
-29.6904 -13.2385 -10.2368
33.7591 -12.6902 -18.8281
-31.8526 -9.8214 -9.16874
-29.7986 -7.72583 -7.78725
37.863 -2.13588 -17.0527
-39.5269 64.071 -12.9918
40.197 66.8676 -21.9021
-34.5068 65.3139 -9.98518
-27.9599 -8.25641 -12.8993
-31.8092 -5.80597 -6.83924
-33.2376 -1.90272 -10.3345
43.608 64.1226 -18.0691
-36.5294 -3.85306 -14.8262
38.8805 65.2775 -14.8654
43.1477 -4.6618 -12.8339
42.9043 58.378 -13.9769
42.0374 -6.76635 -6.50804
28.1327 -8.51299 -22.5464
-33.4631 -1.44206 -2.94463
36.6824 -12.7247 -7.05673
-39.9359 66.1738 -5.67213
-36.0687 66.1841 1.07591
-34.6828 63.4716 -1.5619
-29.9685 -13.2775 -1.53849
34.8911 -13.8007 -2.90044
39.1855 -3.6615 -11.0275
43.9754 58.1085 -4.98935
25.3543 -11.8074 -7.66155
-24.4217 -8.89618 -7.69559
34.6367 -7.37779 -15.5396
-40.1148 63.6103 -4.82384
38.348 -9.29173 -7.96493
-40.1395 65.3886 -1.91153
45.7367 64.2975 -7.80206
-38.3746 58.1904 -4.67015
43.9653 14.3266 -5.47251
45.6455 63.5416 -0.955481
-27.3774 -14.0798 4.70599
-39.2778 63.2601 3.34895
-39.6696 66.1906 0.406609
-30.9887 -6.03884 1.76091
40.2703 64.7304 -3.018
43.7675 53.0293 0.451664
-31.6084 -9.92552 0.669589
-36.6015 58.0989 7.2352
-35.8665 -6.995 -1.66789
36.3695 -7.03517 -2.85948
-37.7981 -3.64465 -3.21417
35.5797 -12.9443 5.23652
37.1096 -9.74617 6.2209
38.6237 -4.72041 -4.07323
43.5921 7.23613 1.52724
-32.1784 -0.908469 5.4683
-33.3192 64.3407 5.23647
-27.3058 -6.32285 11.5054
40.9661 -6.74648 5.07096
-30.6283 63.6303 12.0857
45.2978 65.8042 -0.878138
21.4595 -11.8146 10.0157
43.6568 -4.28945 -1.33571
45.9202 53.2818 3.24637
43.316 59.2679 4.39688
-28.8308 -12.9508 5.47676
-29.5198 -9.92351 8.52422
44.0416 2.55435 2.49194
44.3319 49.9438 4.8629
-25.5283 -8.82655 5.42644
42.9659 -1.36362 6.5558
54.7113 2.02743 6.72265
45.2043 0.739053 5.18779
57.8734 4.74529 6.71918
48.1842 5.69159 4.54423
46.4758 51.1381 4.65157
53.1077 52.8733 5.34006
41.3626 66.6425 -0.21166
-35.4292 -5.18205 8.56955
39.5246 -5.84898 11.4723
42.5213 10.7864 6.54323
44.7039 56.6456 5.65804
-38.1669 66.606 5.83148
-9.63642 -11.3092 1.36179
37.5945 48.2985 8.5589
56.9648 53.1013 6.92697
42.3262 59.767 8.45682
39.0812 56.2843 4.60889
-26.4461 63.752 18.3351
32.2233 -12.6865 12.1824
50.5451 50.4666 7.26679
49.0532 54.9332 4.68588
43.874 66.0794 6.38841
54.6923 5.46538 6.71477
55.0293 50.9401 6.37295
58.5842 47.6503 7.24276
43.8832 63.2239 8.71049
36.2714 -6.04195 5.57998
44.4374 0.0651257 9.99511
42.9125 48.5874 5.59827
47.8511 50.2834 10.3639
60.8863 49.2728 8.29953
44.0467 57.3581 8.35089
55.1987 0.604919 11.0332
59.5023 3.67227 8.15141
63.0126 6.19823 9.80171
45.2801 7.81292 7.14821
62.172 42.498 7.94273
-25.1719 -12.8502 13.2331
0.579706 -12.6628 19.8589
40.9671 -0.908492 11.506
58.4965 7.24146 8.18686
62.1642 8.65281 8.04834
65.1076 12.2709 9.39263
65.5549 33.3523 9.27077
57.328 53.8322 10.8825
-36.026 62.9327 13.1082
37.694 64.6656 9.46289
30.2555 -13.8064 11.431
-31.8657 -5.05677 15.9343
53.2301 6.96637 10.6024
-32.0684 57.9954 16.9379
63.1997 17.6405 8.90834
66.6655 20.8958 9.92891
62.491 29.436 9.41871
61.1033 37.1235 9.25593
-27.1577 -1.19789 15.6731
56.4424 47.2473 8.51845
53.4582 49.1466 9.16707
51.8787 56.422 9.73903
-37.1715 65.8127 11.4183
39.5433 66.0231 4.83247
-25.1654 -10.2404 16.1087
-19.7934 -14.1113 17.7579
8.51812 -7.56489 -3.17756
66.5926 32.0307 11.1759
63.3948 44.6732 9.53017
42.7191 50.688 12.4747
39.9377 56.957 13.7716
43.1316 67.004 1.73783
31.5699 -8.51002 3.91827
38.3924 3.07162 7.37617
43.8904 7.59323 11.3018
60.0868 16.1379 13.0751
31.1718 -9.61948 17.1536
34.9714 -2.90426 13.6211
39.4078 2.91251 14.6024
42.019 6.40535 13.2427
51.4862 49.8632 13.4598
46.8959 51.3106 13.6705
37.6766 57.2994 17.3079
21.2408 -13.9576 21.2174
43.1574 1.46816 12.6253
53.7215 1.21667 14.9373
41.9492 3.85852 13.78
59.5254 2.45039 14.0344
40.1021 9.71135 12.6795
40.1154 48.8498 13.1116
42.5591 54.0489 14.0835
40.8249 54.533 13.8672
7.76931 -8.53545 24.8121
31.9575 -6.1432 13.8134
-28.2517 25.3724 21.8992
57.1033 8.60414 12.6639
66.052 12.634 12.8712
64.2316 41.1385 14.7881
42.2509 56.5591 12.473
46.2558 3.6814 15.2847
63.3968 6.53668 14.7416
66.7596 23.6574 14.8549
59.1381 35.8882 13.3982
37.0501 -3.41058 17.9426
65.9236 31.8313 16.1096
54.6278 47.0531 13.0726
50.4525 55.876 14.27
49.157 6.61473 13.4247
34.1613 64.53 15.3538
-24.0652 32.3761 20.5841
-27.992 66.3231 19.1094
65.1201 12.2183 16.3736
52.8197 50.0792 15.834
60.6754 49.6777 13.7302
54.8632 54.6848 13.9592
30.0841 -3.3614 20.1221
53.1305 3.66573 17.2041
48.3936 4.73882 15.8822
53.6508 6.60078 15.5722
56.9087 8.42093 16.3325
61.9727 7.06988 18.0308
58.617 11.8959 15.4598
60.163 47.8258 17.0153
56.6859 52.3676 16.335
-29.8023 63.8128 23.5414
-30.7453 66.9006 19.3189
40.2226 65.8048 16.1016
59.9988 26.0612 15.0322
57.9218 39.4006 16.4853
-25.1196 57.9898 25.4033
-19.7233 3.60112 24.2762
52.5023 52.6754 16.9547
49.8652 53.5905 16.4252
36.4277 66.622 14.0567
-17.2628 -1.97125 23.5773
55.9896 5.92067 18.0278
58.4789 9.83919 18.0816
59.9101 19.6102 16.3325
64.0836 15.4675 18.728
56.4792 45.7973 17.6833
61.9426 39.2218 19.1943
-29.1353 65.8427 23.6469
-11.0117 -14.1185 23.9431
-4.15111 -14.07 26.4398
58.0364 5.27152 18.5467
64.827 23.4797 18.7691
57.8144 48.3094 18.1939
-18.9948 63.099 25.4299
37.718 63.9864 20.4041
26.9703 67.1516 26.5125
21.7986 -9.73443 25.1629
-26.592 -4.69322 23.0554
60.271 18.0602 18.6176
61.7008 13.6726 19.7058
62.2205 29.3461 19.86
60.2834 34.0666 19.1072
20.0871 -12.5822 24.3937
-7.03319 -7.82821 25.7586
34.0142 -4.78599 21.81
38.8443 67.0284 14.7458
10.7773 -14.0104 26.8116
-17.0121 66.6558 28.992
-19.4453 -4.541 29.0319
23.8535 -7.56667 19.9654
24.6027 21.9383 25.3991
29.9532 65.0963 20.7722
31.7854 64.4002 26.9364
-16.5068 -10.718 24.1182
25.5611 -6.97872 27.0248
30.2801 58.294 25.9182
11.507 -9.77331 29.4564
32.8586 66.7824 24.5127
23.6305 -3.38732 25.6702
-9.33648 -4.46473 28.5665
27.1273 -1.72341 28.2245
-11.2267 64.1649 29.8908
2.64747 -12.6836 28.6862
-1.71904 -6.60531 28.9639
-20.8195 19.4677 28.6815
-2.56787 -9.97863 29.9533
11.9025 -7.48912 27.1673
20.6063 65.4307 27.841
-21.9785 64.8746 30.5426
14.7892 -7.06116 32.4251
-4.85251 -2.24788 31.0737
14.1365 -3.25801 30.3759
0.018635 64.5637 32.4521
-11.4975 -5.22881 32.8422
22.6891 58.3955 31.1863
11.4614 64.0536 31.5147
19.8932 -4.05155 32.5025
5.55855 -0.141083 31.9224
21.7156 64.5216 33.9175
-13.1312 65.5776 34.9166
1.88077 66.7086 34.3012
-2.4404 -4.95483 35.4665
14.7755 58.2802 34.472
-3.93631 66.9754 36.0947
-19.831 66.8408 30.1589
13.9005 66.693 32.1434
27.2849 65.8651 30.1168
-16.5438 58.0624 31.4167
-10.2623 11.7361 33.9712
-8.63586 58.1732 34.563
4.41064 -4.07163 35.9398
11.1919 -5.09257 35.219
4.07618 58.2186 36.2997
12.0938 66.136 36.551
16.4077 67.1558 34.0473
-4.15443 63.9093 37.5733
9.46137 64.0608 37.6639
-2.11038 65.8187 37.7809
40.0359 65.8196 -8.46355
60.484 11.0118 9.95512
39.6826 -2.5718 -6.96067
2.3429 -10.311 -2.9497
26.059 -13.2355 19.2696
37.0726 24.6992 9.68293
39.4848 -1.64055 0.0689748
39.0099 34.2627 4.21279
39.7132 21.5042 -0.71653
-12.9579 -7.2502 23.7952
-15.0861 -8.34709 18.243
-13.1208 -2.08685 27.8519
-16.5651 -5.80564 20.9976
-22.0418 -4.7566 19.8541
-20.0733 -7.92008 17.5926
-16.629 -8.512 10.7014
3 3 6 5
3 6 3 0
3 6 0 1
3 0 3 7
3 11 0 7
3 1 0 11
3 2 4 5
3 6 2 5
3 9 7 3
3 4 12 5
3 5 12 3
3 54 7 9
3 4 2 8
3 19 12 4
3 9 3 12
3 11 7 15
3 16 11 15
3 13 2 6
3 19 27 12
3 9 12 42
3 1 10 6
3 18 16 15
3 10 1 11
3 7 54 34
3 15 7 34
3 13 6 14
3 6 10 14
3 21 16 18
3 22 11 16
3 4 8 26
3 8 2 13
3 17 20 18
3 27 42 12
3 20 21 18
3 42 29 9
3 29 54 9
3 15 34 18
3 4 26 19
3 40 26 8
3 20 17 23
3 32 21 20
3 17 18 23
3 25 10 11
3 21 22 16
3 22 25 11
3 36 19 26
3 31 37 20
3 37 32 20
3 23 18 24
3 18 34 24
3 8 13 40
3 23 31 20
3 33 13 14
3 32 28 21
3 14 10 38
3 35 30 26
3 26 40 35
3 19 36 27
3 41 23 24
3 27 47 42
3 28 32 51
3 24 34 65
3 30 39 26
3 26 39 36
3 23 79 31
3 37 51 32
3 33 14 38
3 51 52 28
3 43 38 10
3 10 25 43
3 28 58 21
3 39 30 44
3 37 50 51
3 41 24 65
3 29 42 62
3 62 70 29
3 22 21 58
3 58 75 22
3 35 44 30
3 49 36 39
3 61 79 23
3 56 37 31
3 50 37 56
3 13 45 40
3 45 13 33
3 41 61 23
3 47 27 57
3 47 62 42
3 29 59 54
3 34 54 65
3 25 48 43
3 25 22 97
3 46 44 35
3 35 40 46
3 56 31 79
3 33 38 63
3 52 58 28
3 25 97 48
3 46 40 45
3 41 65 53
3 62 47 57
3 66 50 56
3 51 50 66
3 52 51 67
3 39 60 49
3 55 36 49
3 27 36 55
3 51 66 67
3 58 52 67
3 64 53 65
3 70 59 29
3 97 22 75
3 72 44 46
3 46 45 83
3 57 27 55
3 33 63 74
3 38 43 48
3 54 59 65
3 39 101 60
3 55 49 60
3 61 41 76
3 53 76 41
3 57 91 62
3 46 83 72
3 45 33 73
3 80 59 70
3 65 59 90
3 44 101 39
3 33 74 73
3 66 71 67
3 53 64 69
3 84 70 62
3 64 65 77
3 80 90 59
3 65 90 77
3 82 44 89
3 38 74 63
3 68 38 48
3 48 97 113
3 72 89 44
3 73 83 45
3 79 61 94
3 124 71 66
3 69 64 77
3 67 85 58
3 58 85 75
3 56 124 66
3 55 102 57
3 76 53 69
3 84 62 91
3 68 74 38
3 48 78 68
3 70 84 80
3 75 93 97
3 83 87 72
3 61 76 94
3 57 102 91
3 85 67 71
3 75 85 93
3 78 48 113
3 60 86 55
3 44 88 101
3 102 55 98
3 60 101 86
3 88 44 81
3 82 81 44
3 84 104 80
3 80 104 90
3 55 86 98
3 103 73 74
3 69 95 76
3 77 95 69
3 93 85 71
3 68 103 74
3 73 108 83
3 73 103 96
3 95 94 76
3 91 119 84
3 77 90 114
3 81 82 88
3 119 91 102
3 124 136 71
3 92 77 114
3 71 111 93
3 92 95 77
3 119 100 84
3 100 112 84
3 84 112 104
3 90 105 114
3 72 87 89
3 108 87 83
3 56 79 238
3 73 96 108
3 79 94 135
3 90 104 105
3 93 120 97
3 117 99 95
3 71 136 111
3 68 78 118
3 107 98 86
3 98 109 102
3 124 56 238
3 95 92 117
3 93 111 120
3 68 118 122
3 109 98 107
3 122 103 68
3 106 118 78
3 106 78 113
3 113 97 120
3 110 99 117
3 92 114 117
3 100 119 141
3 82 387 88
3 79 135 238
3 99 110 115
3 113 120 384
3 101 88 387
3 121 96 103
3 112 127 105
3 89 134 82
3 134 387 82
3 110 117 116
3 136 132 111
3 103 122 121
3 141 112 100
3 86 144 107
3 101 187 86
3 96 138 108
3 121 138 96
3 87 134 89
3 102 152 119
3 154 141 119
3 112 137 127
3 126 87 108
3 387 187 101
3 102 109 152
3 154 119 152
3 131 134 87
3 108 138 126
3 136 124 244
3 123 138 121
3 384 120 111
3 112 141 137
3 140 122 118
3 187 144 86
3 135 115 110
3 117 125 116
3 117 129 125
3 111 132 384
3 114 105 128
3 107 144 130
3 121 122 142
3 117 114 129
3 128 129 114
3 105 127 186
3 128 105 186
3 140 118 106
3 109 107 130
3 109 130 150
3 109 150 152
3 137 139 127
3 106 113 243
3 126 131 87
3 166 123 121
3 132 386 384
3 122 140 133
3 127 139 146
3 186 127 146
3 113 384 181
3 238 135 399
3 238 244 124
3 110 116 147
3 153 132 136
3 125 129 159
3 142 122 133
3 135 110 173
3 157 132 153
3 157 386 132
3 137 141 145
3 137 145 139
3 384 148 181
3 153 136 244
3 116 125 147
3 157 390 386
3 121 171 166
3 121 142 171
3 384 386 392
3 141 151 145
3 139 145 146
3 106 164 140
3 140 143 133
3 113 181 243
3 106 243 164
3 399 135 173
3 173 110 147
3 392 148 384
3 129 128 160
3 142 158 171
3 142 133 149
3 165 134 131
3 130 169 150
3 165 387 134
3 125 159 147
3 386 390 392
3 141 154 151
3 169 130 144
3 138 123 156
3 154 182 151
3 146 145 186
3 140 164 143
3 126 155 131
3 170 150 169
3 152 182 154
3 142 149 158
3 392 191 148
3 133 168 149
3 126 138 155
3 138 156 155
3 182 152 150
3 161 173 147
3 162 156 123
3 244 201 153
3 153 201 157
3 129 160 159
3 162 123 166
3 157 201 390
3 148 191 235
3 243 196 164
3 150 170 182
3 161 147 159
3 145 234 186
3 148 235 181
3 166 171 174
3 149 203 158
3 222 165 131
3 159 160 163
3 179 149 167
3 185 149 168
3 145 151 220
3 133 143 168
3 174 171 176
3 171 158 178
3 203 149 172
3 172 149 179
3 143 200 168
3 169 144 212
3 171 175 176
3 175 171 177
3 177 171 178
3 179 167 180
3 180 167 195
3 221 235 191
3 212 144 237
3 187 237 144
3 170 169 212
3 183 162 166
3 178 158 210
3 210 158 184
3 158 203 184
3 234 145 220
3 200 143 164
3 128 186 282
3 128 282 160
3 235 243 181
3 230 161 159
3 194 179 180
3 194 180 198
3 180 195 189
3 168 200 190
3 163 160 192
3 200 164 196
3 222 131 155
3 212 236 170
3 170 236 182
3 183 166 174
3 177 178 197
3 184 203 261
3 151 182 225
3 179 204 172
3 198 180 189
3 168 190 185
3 222 155 193
3 173 161 398
3 183 156 162
3 174 176 202
3 208 175 177
3 210 197 178
3 159 163 230
3 199 198 189
3 233 189 195
3 233 195 185
3 206 185 190
3 192 160 282
3 196 243 331
3 182 236 223
3 175 207 176
3 177 197 215
3 197 210 224
3 210 184 246
3 231 198 199
3 232 198 231
3 211 199 205
3 204 203 172
3 179 194 204
3 198 232 194
3 205 199 189
3 191 280 221
3 234 297 186
3 221 305 235
3 193 155 248
3 155 156 248
3 244 238 264
3 244 265 201
3 201 265 249
3 214 183 174
3 207 202 176
3 207 175 208
3 208 177 209
3 216 177 215
3 385 216 215
3 225 182 223
3 184 261 260
3 205 240 211
3 185 206 233
3 387 213 187
3 165 213 387
3 399 173 398
3 174 256 214
3 202 256 174
3 215 197 224
3 279 210 246
3 224 210 279
3 209 216 217
3 226 217 216
3 226 216 385
3 229 211 228
3 389 188 391
3 229 231 199
3 211 229 199
3 240 218 211
3 219 189 233
3 206 242 270
3 206 190 242
3 196 298 200
3 246 184 260
3 217 226 227
3 226 228 218
3 226 218 227
3 228 211 218
3 230 163 192
3 389 280 188
3 231 277 232
3 261 203 241
3 189 219 205
3 151 225 220
3 214 275 183
3 208 259 207
3 259 208 209
3 215 224 267
3 247 226 385
3 228 274 229
3 218 240 239
3 274 231 229
3 204 241 203
3 194 252 204
3 232 252 194
3 205 219 285
3 278 206 270
3 233 206 278
3 190 254 242
3 190 200 254
3 234 220 296
3 282 186 297
3 243 235 305
3 237 236 212
3 238 399 264
3 397 398 161
3 230 397 161
3 245 249 389
3 224 279 290
3 246 260 251
3 215 267 385
3 217 268 209
3 223 266 225
3 227 218 239
3 274 277 231
3 205 285 240
3 241 204 253
3 219 233 286
3 220 225 296
3 221 280 305
3 196 331 298
3 243 305 331
3 237 187 213
3 388 222 193
3 323 223 236
3 265 244 335
3 156 183 248
3 202 207 257
3 214 256 250
3 251 289 246
3 217 227 268
3 299 226 247
3 192 281 230
3 239 240 269
3 232 277 252
3 252 253 204
3 233 278 286
3 222 255 165
3 335 244 264
3 256 202 257
3 256 258 250
3 258 251 250
3 260 250 251
3 279 246 289
3 290 267 224
3 209 268 272
3 280 389 249
3 226 299 228
3 227 239 273
3 299 274 228
3 260 261 275
3 241 262 261
3 261 262 263
3 262 270 263
3 242 263 270
3 200 320 254
3 234 313 297
3 222 388 255
3 237 339 236
3 265 287 249
3 250 275 214
3 259 257 207
3 257 271 256
3 271 258 256
3 271 251 258
3 266 223 323
3 272 259 209
3 385 267 293
3 385 293 247
3 230 281 302
3 268 227 273
3 239 269 276
3 240 285 269
3 304 262 241
3 241 253 304
3 219 295 285
3 295 219 286
3 270 262 278
3 234 296 313
3 200 298 320
3 193 248 388
3 264 399 394
3 183 275 330
3 397 230 302
3 289 251 271
3 291 267 290
3 273 239 276
3 274 300 277
3 252 277 284
3 284 253 252
3 242 261 263
3 304 278 262
3 301 296 225
3 393 394 396
3 183 330 248
3 288 271 257
3 271 288 289
3 279 289 290
3 250 260 275
3 293 267 291
3 268 283 272
3 293 309 247
3 309 299 247
3 249 337 280
3 261 254 275
3 301 225 266
3 284 304 253
3 213 314 237
3 236 339 323
3 265 335 287
3 259 272 292
3 283 268 273
3 277 300 311
3 277 311 284
3 295 294 285
3 242 254 261
3 304 303 278
3 278 303 286
3 295 286 303
3 316 288 257
3 259 316 257
3 272 283 292
3 337 249 287
3 274 299 300
3 285 294 269
3 284 311 303
3 284 303 304
3 321 305 280
3 213 315 314
3 323 339 334
3 292 316 259
3 289 288 307
3 289 307 290
3 290 307 291
3 291 308 293
3 293 308 309
3 273 317 283
3 273 276 317
3 295 318 294
3 318 295 303
3 281 192 319
3 331 343 298
3 394 393 329
3 288 316 307
3 307 308 291
3 324 309 308
3 310 283 317
3 350 266 323
3 309 324 327
3 309 327 299
3 299 327 300
3 254 330 275
3 276 269 312
3 300 327 311
3 294 312 269
3 294 318 312
3 311 318 303
3 302 281 319
3 337 321 280
3 321 331 305
3 165 255 332
3 314 339 237
3 248 322 388
3 264 394 329
3 396 395 393
3 306 395 396
3 307 316 308
3 324 308 316
3 283 310 292
3 337 287 336
3 276 312 317
3 327 312 311
3 312 318 311
3 213 165 332
3 287 335 344
3 292 325 316
3 292 310 325
3 316 325 324
3 326 324 325
3 327 324 326
3 317 312 326
3 326 312 327
3 341 254 320
3 319 192 333
3 192 282 333
3 370 297 313
3 332 315 213
3 388 328 255
3 388 322 328
3 335 264 352
3 340 248 330
3 317 325 310
3 326 325 317
3 350 301 266
3 341 330 254
3 297 333 282
3 320 298 343
3 328 332 255
3 340 322 248
3 329 393 345
3 344 336 287
3 331 321 343
3 359 334 339
3 395 345 393
3 352 344 335
3 350 323 334
3 296 354 313
3 343 338 320
3 333 297 370
3 315 351 314
3 314 351 339
3 349 264 329
3 352 264 349
3 302 319 347
3 336 353 337
3 301 354 296
3 353 321 337
3 328 322 342
3 345 349 329
3 344 352 357
3 330 341 346
3 395 302 347
3 373 354 301
3 338 341 320
3 319 333 347
3 313 354 370
3 332 348 315
3 328 342 332
3 359 339 351
3 373 301 350
3 348 351 315
3 330 362 340
3 362 330 346
3 395 356 345
3 332 342 348
3 348 342 351
3 355 322 340
3 349 345 356
3 357 336 344
3 334 374 350
3 395 347 356
3 338 343 372
3 359 351 367
3 357 349 356
3 352 349 357
3 357 361 353
3 353 336 357
3 333 358 347
3 343 321 380
3 322 355 342
3 356 363 357
3 359 374 334
3 341 360 346
3 374 373 350
3 356 347 358
3 370 354 365
3 353 361 371
3 321 353 371
3 343 380 372
3 377 367 351
3 342 377 351
3 355 340 362
3 363 356 358
3 346 360 362
3 374 375 373
3 364 341 338
3 372 364 338
3 369 333 370
3 371 380 321
3 355 377 342
3 361 357 363
3 363 358 361
3 341 364 360
3 373 365 354
3 358 333 366
3 367 374 359
3 369 370 365
3 361 358 366
3 361 366 371
3 366 333 369
3 367 377 376
3 362 360 368
3 381 373 375
3 365 373 381
3 366 380 371
3 355 362 377
3 374 367 375
3 360 364 368
3 380 366 369
3 372 380 364
3 376 378 367
3 368 377 362
3 367 378 375
3 381 383 365
3 369 365 383
3 364 380 379
3 377 378 376
3 368 378 377
3 378 381 375
3 382 378 368
3 368 364 382
3 378 382 381
3 379 382 364
3 380 369 383
3 379 380 383
3 381 382 383
3 382 379 383
3 216 209 177
3 185 195 149
3 167 149 195
3 188 280 191
3 104 112 105
3 392 391 191
3 245 390 249
3 391 188 191
3 390 201 249
3 392 390 245
3 389 391 392
3 392 245 389
3 99 94 95
3 99 115 94
3 115 135 94
3 306 302 395
3 394 399 398
3 396 397 306
3 302 306 397
3 397 396 398
3 396 394 398
