ply
format ascii 1.0
comment VCGLIB generated
element vertex 120
property float x
property float y
property float z
element face 208
property list uchar int vertex_indices
end_header
-7.01315 64.2961 -46.7401 
-6.74043 66.566 -45.1981 
-16.7728 64.7316 -43.1604 
-12.9264 58.4812 -42.7588 
-6.56432 66.4567 -43.0748 
-11.2516 -5.06119 -42.8183 
-8.74482 -3.37837 -39.6532 
-14.2308 64.1466 -38.1075 
-17.7861 -5.20952 -39.7588 
-25.8506 65.0279 -37.0518 
-17.6736 66.6176 -39.0933 
-13.409 -9.87613 -36.0676 
-6.84574 -14.0656 -35.2895 
-17.0972 -3.13952 -35.5904 
-21.8152 58.0889 -37.703 
-23.8156 -2.14877 -35.3904 
-15.271 -12.7497 -32.775 
-23.204 -1.40683 -30.607 
-20.1115 66.4614 -40.0056 
-23.9565 -9.89116 -27.738 
-28.2796 -4.70268 -30.6386 
-31.3346 66.3906 -29.3489 
-20.7632 -14.0943 -26.214 
-17.3443 -7.72639 -31.4806 
-29.3811 58.4433 -30.4637 
-25.675 63.7924 -29.1909 
-20.4344 65.2129 -34.2026 
-28.1246 0.286815 -24.5603 
-32.1808 64.3305 -29.9351 
-26.0927 -6.0606 -24.3395 
-30.3282 64.955 -22.5344 
-8.80087 -9.19184 -33.0353 
-34.723 65.8172 -25.4926 
-34.0794 58.2439 -22.9039 
-25.8929 -14.1223 -18.356 
-34.684 66.689 -22.3915 
-32.7042 -3.38923 -24.2706 
-33.0739 64.3424 -16.0656 
-24.6959 -8.75948 -18.1022 
-30.8299 -2.8576 -18.9143 
-29.0223 -9.95246 -19.0022 
-29.3822 -6.35187 -16.3078 
-36.8099 57.9373 -15.5564 
-33.7192 -7.28878 -17.1727 
-38.2091 65.7593 -17.7947 
-38.8053 66.5875 -11.1281 
-29.6904 -13.2385 -10.2368 
-31.8526 -9.8214 -9.16874 
-29.7986 -7.72583 -7.78725 
-39.5269 64.071 -12.9918 
-34.5068 65.3139 -9.98518 
-27.9599 -8.25641 -12.8993 
-31.8092 -5.80597 -6.83924 
-33.2376 -1.90272 -10.3345 
-36.5294 -3.85306 -14.8262 
-33.4631 -1.44206 -2.94463 
-39.9359 66.1738 -5.67213 
-36.0687 66.1841 1.07591 
-34.6828 63.4716 -1.5619 
-29.9685 -13.2775 -1.53849 
-24.4217 -8.89618 -7.69559 
-40.1148 63.6103 -4.82384 
-40.1395 65.3886 -1.91153 
-38.3746 58.1904 -4.67015 
-27.3774 -14.0798 4.70599 
-39.2778 63.2601 3.34895 
-39.6696 66.1906 0.406609 
-30.9887 -6.03884 1.76091 
-31.6084 -9.92552 0.669589 
-36.6015 58.0989 7.2352 
-35.8665 -6.995 -1.66789 
-37.7981 -3.64465 -3.21417 
-32.1784 -0.908469 5.4683 
-33.3192 64.3407 5.23647 
-27.3058 -6.32285 11.5054 
-30.6283 63.6303 12.0857 
-28.8308 -12.9508 5.47676 
-29.5198 -9.92351 8.52422 
-25.5283 -8.82655 5.42644 
-35.4292 -5.18205 8.56955 
-38.1669 66.606 5.83148 
-9.63642 -11.3092 1.36179 
-26.4461 63.752 18.3351 
-25.1719 -12.8502 13.2331 
-36.026 62.9327 13.1082 
-31.8657 -5.05677 15.9343 
-32.0684 57.9954 16.9379 
-27.1577 -1.19789 15.6731 
-37.1715 65.8127 11.4183 
-25.1654 -10.2404 16.1087 
-19.7934 -14.1113 17.7579 
-28.2517 25.3724 21.8992 
-24.0652 32.3761 20.5841 
-27.992 66.3231 19.1094 
-29.8023 63.8128 23.5414 
-30.7453 66.9006 19.3189 
-25.1196 57.9898 25.4033 
-19.7233 3.60112 24.2762 
-17.2628 -1.97125 23.5773 
-29.1353 65.8427 23.6469 
-11.0117 -14.1185 23.9431 
-18.9948 63.099 25.4299 
-26.592 -4.69322 23.0554 
-17.0121 66.6558 28.992 
-19.4453 -4.541 29.0319 
-16.5068 -10.718 24.1182 
-11.2267 64.1649 29.8908 
-20.8195 19.4677 28.6815 
-21.9785 64.8746 30.5426 
-11.4975 -5.22881 32.8422 
-13.1312 65.5776 34.9166 
-19.831 66.8408 30.1589 
-16.5438 58.0624 31.4167 
-12.9579 -7.2502 23.7952 
-15.0861 -8.34709 18.243 
-13.1208 -2.08685 27.8519 
-16.5651 -5.80564 20.9976 
-22.0418 -4.7566 19.8541 
-20.0733 -7.92008 17.5926 
-16.629 -8.512 10.7014 
3 2 1 0 
3 18 1 2 
3 2 0 3 
3 5 8 3 
3 2 3 14 
3 1 18 10 
3 4 1 10 
3 8 14 3 
3 14 9 2 
3 9 18 2 
3 5 11 8 
3 13 6 7 
3 8 15 14 
3 7 10 26 
3 13 7 26 
3 9 14 24 
3 24 28 9 
3 16 11 12 
3 23 31 6 
3 13 23 6 
3 15 8 20 
3 15 24 14 
3 9 21 18 
3 10 18 26 
3 13 26 17 
3 24 15 20 
3 12 22 16 
3 19 11 16 
3 8 11 19 
3 25 17 26 
3 28 21 9 
3 20 8 19 
3 18 21 26 
3 19 16 22 
3 23 13 29 
3 17 29 13 
3 20 36 24 
3 32 21 28 
3 26 21 35 
3 17 25 27 
3 33 28 24 
3 25 26 30 
3 32 35 21 
3 26 35 30 
3 31 23 38 
3 27 25 30 
3 19 43 20 
3 29 17 27 
3 33 24 36 
3 28 33 32 
3 23 29 38 
3 20 43 36 
3 22 34 19 
3 43 19 40 
3 33 44 32 
3 32 44 35 
3 19 34 40 
3 27 39 29 
3 30 39 27 
3 39 38 29 
3 36 54 33 
3 30 35 50 
3 54 36 43 
3 37 30 50 
3 37 39 30 
3 54 42 33 
3 42 49 33 
3 33 49 44 
3 35 45 50 
3 31 38 60 
3 35 44 45 
3 53 41 39 
3 46 40 34 
3 40 47 43 
3 39 37 53 
3 47 40 46 
3 48 41 53 
3 37 50 53 
3 42 54 63 
3 41 48 51 
3 49 56 45 
3 48 53 52 
3 63 49 42 
3 34 64 46 
3 43 70 54 
3 71 63 54 
3 49 61 56 
3 43 47 70 
3 71 54 70 
3 49 63 61 
3 81 64 34 
3 60 51 48 
3 53 55 52 
3 53 58 55 
3 50 45 57 
3 46 64 59 
3 53 50 58 
3 57 58 50 
3 45 56 80 
3 57 45 80 
3 47 46 59 
3 47 59 68 
3 47 68 70 
3 61 62 56 
3 56 62 66 
3 80 56 66 
3 48 52 67 
3 55 58 72 
3 60 48 78 
3 61 63 65 
3 61 65 62 
3 52 55 67 
3 63 69 65 
3 62 65 66 
3 119 60 78 
3 78 48 67 
3 58 57 73 
3 59 76 68 
3 55 72 67 
3 63 71 69 
3 76 59 64 
3 71 79 69 
3 66 65 80 
3 77 68 76 
3 70 79 71 
3 79 70 68 
3 74 78 67 
3 58 73 72 
3 68 77 79 
3 74 67 72 
3 65 88 80 
3 72 73 75 
3 65 69 84 
3 76 64 83 
3 83 64 90 
3 81 90 64 
3 77 76 83 
3 88 65 84 
3 57 80 93 
3 57 93 73 
3 87 74 72 
3 75 73 82 
3 83 89 77 
3 77 89 79 
3 69 79 86 
3 78 74 118 
3 72 75 87 
3 82 73 93 
3 79 89 85 
3 88 95 80 
3 86 79 85 
3 119 78 118 
3 87 75 82 
3 69 86 84 
3 88 84 94 
3 93 80 95 
3 90 89 83 
3 117 118 74 
3 87 117 74 
3 85 91 86 
3 84 86 94 
3 102 85 89 
3 82 92 87 
3 88 99 95 
3 90 105 89 
3 91 85 102 
3 87 92 97 
3 88 94 99 
3 117 87 97 
3 96 94 86 
3 113 114 116 
3 96 86 91 
3 89 105 102 
3 102 105 104 
3 92 82 101 
3 107 91 102 
3 97 92 101 
3 100 105 90 
3 116 115 113 
3 98 115 116 
3 101 82 103 
3 82 93 103 
3 111 95 99 
3 107 96 91 
3 95 103 93 
3 109 104 105 
3 107 102 104 
3 94 108 99 
3 103 95 111 
3 97 101 106 
3 96 108 94 
3 115 97 106 
3 112 108 96 
3 101 103 106 
3 99 108 111 
3 112 96 107 
3 111 108 110 
3 112 110 108 
3 44 49 45 
3 41 38 39 
3 41 51 38 
3 51 60 38 
3 98 97 115 
3 114 119 118 
3 116 117 98 
3 97 98 117 
3 117 116 118 
3 116 114 118 
