ply
format ascii 1.0
comment VCGLIB generated
element vertex 400
property float x
property float y
property float z
element face 800
property list uchar int vertex_indices
end_header
0.000920395 0.0653503 -0.0473301 
0.0113472 0.0646978 -0.0468608 
0.00583952 -0.00366602 -0.0455355 
-0.00701315 0.0642961 -0.0467401 
-0.00438208 -0.0047471 -0.0448217 
-0.00393055 0.0583951 -0.0453048 
0.00819483 0.0579618 -0.0454744 
-0.00674043 0.066566 -0.0451981 
0.00791871 -0.00709386 -0.0430636 
-0.0167728 0.0647316 -0.0431604 
0.021926 0.0644931 -0.0432451 
0.0117513 0.0666104 -0.0454392 
-0.0129264 0.0584812 -0.0427588 
0.0173217 -0.00468135 -0.0429822 
0.0200588 0.0584959 -0.0419412 
-0.00656432 0.0664567 -0.0430748 
0.00611053 0.066501 -0.0438901 
-0.00345329 0.00160833 -0.0411224 
-0.00428137 0.064612 -0.0416404 
-0.0112516 -0.00506119 -0.0428183 
0.00288964 -0.00277741 -0.0417671 
0.0072461 0.0644749 -0.0420131 
0.0189377 0.0668628 -0.0414622 
-0.00874482 -0.00337837 -0.0396532 
-0.0142308 0.0641466 -0.0381075 
0.0253386 0.0660339 -0.0403399 
-0.000207717 -0.00970511 -0.0399149 
-0.0177861 -0.00520952 -0.0397588 
0.0151779 0.0640544 -0.0401112 
-0.0258506 0.0650279 -0.0370518 
-0.000938982 -0.0129931 -0.0379212 
-0.00240443 -0.0075698 -0.037778 
0.012341 -0.00139504 -0.0406611 
0.0239042 -0.00484651 -0.0398153 
-0.0176736 0.0666176 -0.0390933 
0.00951748 -0.0124103 -0.0377719 
-0.013409 -0.00987613 -0.0360676 
0.00809175 -0.00622162 -0.0394996 
0.0299739 0.058272 -0.0357046 
-0.00684574 -0.0140656 -0.0352895 
0.0116747 -0.00951762 -0.0390232 
-0.0170972 -0.00313952 -0.0355904 
-0.0218152 0.0580889 -0.037703 
0.0303091 0.0646529 -0.0379547 
0.0099954 -0.0140364 -0.03544 
0.0225246 -0.00957707 -0.0341926 
0.0177222 -0.0130426 -0.0345061 
-0.0238156 -0.00214877 -0.0353904 
0.0349558 0.0651123 -0.0335787 
-0.015271 -0.0127497 -0.032775 
0.0150487 -0.00715668 -0.0365996 
0.0184626 -0.00297556 -0.0384557 
0.0221448 0.0621704 -0.0368859 
-0.023204 -0.00140683 -0.030607 
-0.0201115 0.0664614 -0.0400056 
-0.0239565 -0.00989116 -0.027738 
0.0136846 -0.00887997 -0.0330752 
-0.0282796 -0.00470268 -0.0306386 
0.0266384 0.064453 -0.0337018 
-0.0313346 0.0663906 -0.0293489 
-0.0207632 -0.0140943 -0.026214 
-0.0173443 -0.00772639 -0.0314806 
-0.0293811 0.0584433 -0.0304637 
0.031691 -0.00318893 -0.034072 
-0.025675 0.0637924 -0.0291909 
-0.0204344 0.0652129 -0.0342026 
0.0226319 -0.00707674 -0.0327936 
0.0280444 -0.00270768 -0.0321481 
0.0383464 0.0580439 -0.0253945 
-0.0281246 0.000286815 -0.0245603 
-0.0321808 0.0643305 -0.0299351 
0.0327813 -0.00415779 -0.0266708 
0.0236406 -0.0140695 -0.0285043 
0.0299564 -0.00947702 -0.0278431 
0.0359308 -0.00481606 -0.0290224 
0.0289366 0.0665256 -0.0334227 
-0.0260927 -0.0060606 -0.0243395 
-0.0303282 0.064955 -0.0225344 
0.0404297 0.0643995 -0.0255232 
-0.00880087 -0.00919184 -0.0330353 
-0.034723 0.0658172 -0.0254926 
0.00867914 -0.0130891 -0.0236301 
0.0145049 -0.0117995 -0.0198487 
0.0267749 -0.0131104 -0.0281249 
-0.0340794 0.0582439 -0.0229039 
0.0325134 0.0631287 -0.0275341 
-0.0258929 -0.0141223 -0.018356 
0.0327673 -0.0139006 -0.0168789 
0.00578712 -0.0115792 -0.018868 
0.0234246 -0.0125904 -0.0212866 
-0.034684 0.066689 -0.0223915 
-0.0327042 -0.00338923 -0.0242706 
-0.0330739 0.0643424 -0.0160656 
0.0358306 0.0650476 -0.0223072 
-0.0246959 -0.00875948 -0.0181022 
-0.0308299 -0.0028576 -0.0189143 
0.0354329 -0.00944285 -0.0187082 
0.033149 0.066985 -0.0314794 
-0.0290223 -0.00995246 -0.0190022 
-0.0293822 -0.00635187 -0.0163078 
-0.0368099 0.0579373 -0.0155564 
-0.00654522 -0.0116464 -0.0179537 
-0.0337192 -0.00728878 -0.0171727 
0.040825 -0.00507155 -0.0203249 
-0.0382091 0.0657593 -0.0177947 
-0.0388053 0.0665875 -0.0111281 
0.0439195 0.0663517 -0.0128104 
-0.0296904 -0.0132385 -0.0102368 
0.0337591 -0.0126902 -0.0188281 
-0.0318526 -0.0098214 -0.00916874 
-0.0297986 -0.00772583 -0.00778725 
0.037863 -0.00213588 -0.0170527 
-0.0395269 0.064071 -0.0129918 
0.040197 0.0668676 -0.0219021 
-0.0345068 0.0653139 -0.00998518 
-0.0279599 -0.00825641 -0.0128993 
-0.0318092 -0.00580597 -0.00683924 
-0.0332376 -0.00190272 -0.0103345 
0.043608 0.0641226 -0.0180691 
-0.0365294 -0.00385306 -0.0148262 
0.0388805 0.0652775 -0.0148654 
0.0431477 -0.0046618 -0.0128339 
0.0429043 0.058378 -0.0139769 
0.0420374 -0.00676635 -0.00650804 
0.0281327 -0.00851299 -0.0225464 
-0.0334631 -0.00144206 -0.00294463 
0.0366824 -0.0127247 -0.00705673 
-0.0399359 0.0661738 -0.00567213 
-0.0360687 0.0661841 0.00107591 
-0.0346828 0.0634716 -0.0015619 
-0.0299685 -0.0132775 -0.00153849 
0.0348911 -0.0138007 -0.00290044 
0.0391855 -0.0036615 -0.0110275 
0.0439754 0.0581085 -0.00498935 
0.0253543 -0.0118074 -0.00766155 
-0.0244217 -0.00889618 -0.00769559 
0.0346367 -0.00737779 -0.0155396 
-0.0401148 0.0636103 -0.00482384 
0.038348 -0.00929173 -0.00796493 
-0.0401395 0.0653886 -0.00191153 
0.0457367 0.0642975 -0.00780206 
-0.0383746 0.0581904 -0.00467015 
0.0439653 0.0143266 -0.00547251 
0.0456455 0.0635416 -0.000955481 
-0.0273774 -0.0140798 0.00470599 
-0.0392778 0.0632601 0.00334895 
-0.0396696 0.0661906 0.000406609 
-0.0309887 -0.00603884 0.00176091 
0.0402703 0.0647304 -0.003018 
0.0437675 0.0530293 0.000451664 
-0.0316084 -0.00992552 0.000669589 
-0.0366015 0.0580989 0.0072352 
-0.0358665 -0.006995 -0.00166789 
0.0363695 -0.00703517 -0.00285948 
-0.0377981 -0.00364465 -0.00321417 
0.0355797 -0.0129443 0.00523652 
0.0371096 -0.00974617 0.0062209 
0.0386237 -0.00472041 -0.00407323 
0.0435921 0.00723613 0.00152724 
-0.0321784 -0.000908469 0.0054683 
-0.0333192 0.0643407 0.00523647 
-0.0273058 -0.00632285 0.0115054 
0.0409661 -0.00674648 0.00507096 
-0.0306283 0.0636303 0.0120857 
0.0452978 0.0658042 -0.000878138 
0.0214595 -0.0118146 0.0100157 
0.0436568 -0.00428945 -0.00133571 
0.0459202 0.0532818 0.00324637 
0.043316 0.0592679 0.00439688 
-0.0288308 -0.0129508 0.00547676 
-0.0295198 -0.00992351 0.00852422 
0.0440416 0.00255435 0.00249194 
0.0443319 0.0499438 0.0048629 
-0.0255283 -0.00882655 0.00542644 
0.0429659 -0.00136362 0.0065558 
0.0547113 0.00202743 0.00672265 
0.0452043 0.000739053 0.00518779 
0.0578734 0.00474529 0.00671918 
0.0481842 0.00569159 0.00454423 
0.0464758 0.0511381 0.00465157 
0.0531077 0.0528733 0.00534006 
0.0413626 0.0666425 -0.00021166 
-0.0354292 -0.00518205 0.00856955 
0.0395246 -0.00584898 0.0114723 
0.0425213 0.0107864 0.00654323 
0.0447039 0.0566456 0.00565804 
-0.0381669 0.066606 0.00583148 
-0.00963642 -0.0113092 0.00136179 
0.0375945 0.0482985 0.0085589 
0.0569648 0.0531013 0.00692697 
0.0423262 0.059767 0.00845682 
0.0390812 0.0562843 0.00460889 
-0.0264461 0.063752 0.0183351 
0.0322233 -0.0126865 0.0121824 
0.0505451 0.0504666 0.00726679 
0.0490532 0.0549332 0.00468588 
0.043874 0.0660794 0.00638841 
0.0546923 0.00546538 0.00671477 
0.0550293 0.0509401 0.00637295 
0.0585842 0.0476503 0.00724276 
0.0438832 0.0632239 0.00871049 
0.0362714 -0.00604195 0.00557998 
0.0444374 6.51257e-05 0.00999511 
0.0429125 0.0485874 0.00559827 
0.0478511 0.0502834 0.0103639 
0.0608863 0.0492728 0.00829953 
0.0440467 0.0573581 0.00835089 
0.0551987 0.000604919 0.0110332 
0.0595023 0.00367227 0.00815141 
0.0630126 0.00619823 0.00980171 
0.0452801 0.00781292 0.00714821 
0.062172 0.042498 0.00794273 
-0.0251719 -0.0128502 0.0132331 
0.000579706 -0.0126628 0.0198589 
0.0409671 -0.000908492 0.011506 
0.0584965 0.00724146 0.00818686 
0.0621642 0.00865281 0.00804834 
0.0651076 0.0122709 0.00939263 
0.0655549 0.0333523 0.00927077 
0.057328 0.0538322 0.0108825 
-0.036026 0.0629327 0.0131082 
0.037694 0.0646656 0.00946289 
0.0302555 -0.0138064 0.011431 
-0.0318657 -0.00505677 0.0159343 
0.0532301 0.00696637 0.0106024 
-0.0320684 0.0579954 0.0169379 
0.0631997 0.0176405 0.00890834 
0.0666655 0.0208958 0.00992891 
0.062491 0.029436 0.00941871 
0.0611033 0.0371235 0.00925593 
-0.0271577 -0.00119789 0.0156731 
0.0564424 0.0472473 0.00851845 
0.0534582 0.0491466 0.00916707 
0.0518787 0.056422 0.00973903 
-0.0371715 0.0658127 0.0114183 
0.0395433 0.0660231 0.00483247 
-0.0251654 -0.0102404 0.0161087 
-0.0197934 -0.0141113 0.0177579 
0.00851812 -0.00756489 -0.00317756 
0.0665926 0.0320307 0.0111759 
0.0633948 0.0446732 0.00953017 
0.0427191 0.050688 0.0124747 
0.0399377 0.056957 0.0137716 
0.0431316 0.067004 0.00173783 
0.0315699 -0.00851002 0.00391827 
0.0383924 0.00307162 0.00737617 
0.0438904 0.00759323 0.0113018 
0.0600868 0.0161379 0.0130751 
0.0311718 -0.00961948 0.0171536 
0.0349714 -0.00290426 0.0136211 
0.0394078 0.00291251 0.0146024 
0.042019 0.00640535 0.0132427 
0.0514862 0.0498632 0.0134598 
0.0468959 0.0513106 0.0136705 
0.0376766 0.0572994 0.0173079 
0.0212408 -0.0139576 0.0212174 
0.0431574 0.00146816 0.0126253 
0.0537215 0.00121667 0.0149373 
0.0419492 0.00385852 0.01378 
0.0595254 0.00245039 0.0140344 
0.0401021 0.00971135 0.0126795 
0.0401154 0.0488498 0.0131116 
0.0425591 0.0540489 0.0140835 
0.0408249 0.054533 0.0138672 
0.00776931 -0.00853545 0.0248121 
0.0319575 -0.0061432 0.0138134 
-0.0282517 0.0253724 0.0218992 
0.0571033 0.00860414 0.0126639 
0.066052 0.012634 0.0128712 
0.0642316 0.0411385 0.0147881 
0.0422509 0.0565591 0.012473 
0.0462558 0.0036814 0.0152847 
0.0633968 0.00653668 0.0147416 
0.0667596 0.0236574 0.0148549 
0.0591381 0.0358882 0.0133982 
0.0370501 -0.00341058 0.0179426 
0.0659236 0.0318313 0.0161096 
0.0546278 0.0470531 0.0130726 
0.0504525 0.055876 0.01427 
0.049157 0.00661473 0.0134247 
0.0341613 0.06453 0.0153538 
-0.0240652 0.0323761 0.0205841 
-0.027992 0.0663231 0.0191094 
0.0651201 0.0122183 0.0163736 
0.0528197 0.0500792 0.015834 
0.0606754 0.0496777 0.0137302 
0.0548632 0.0546848 0.0139592 
0.0300841 -0.0033614 0.0201221 
0.0531305 0.00366573 0.0172041 
0.0483936 0.00473882 0.0158822 
0.0536508 0.00660078 0.0155722 
0.0569087 0.00842093 0.0163325 
0.0619727 0.00706988 0.0180308 
0.058617 0.0118959 0.0154598 
0.060163 0.0478258 0.0170153 
0.0566859 0.0523676 0.016335 
-0.0298023 0.0638128 0.0235414 
-0.0307453 0.0669006 0.0193189 
0.0402226 0.0658048 0.0161016 
0.0599988 0.0260612 0.0150322 
0.0579218 0.0394006 0.0164853 
-0.0251196 0.0579898 0.0254033 
-0.0197233 0.00360112 0.0242762 
0.0525023 0.0526754 0.0169547 
0.0498652 0.0535905 0.0164252 
0.0364277 0.066622 0.0140567 
-0.0172628 -0.00197125 0.0235773 
0.0559896 0.00592067 0.0180278 
0.0584789 0.00983919 0.0180816 
0.0599101 0.0196102 0.0163325 
0.0640836 0.0154675 0.018728 
0.0564792 0.0457973 0.0176833 
0.0619426 0.0392218 0.0191943 
-0.0291353 0.0658427 0.0236469 
-0.0110117 -0.0141185 0.0239431 
-0.00415111 -0.01407 0.0264398 
0.0580364 0.00527152 0.0185467 
0.064827 0.0234797 0.0187691 
0.0578144 0.0483094 0.0181939 
-0.0189948 0.063099 0.0254299 
0.037718 0.0639864 0.0204041 
0.0269703 0.0671516 0.0265125 
0.0217986 -0.00973443 0.0251629 
-0.026592 -0.00469322 0.0230554 
0.060271 0.0180602 0.0186176 
0.0617008 0.0136726 0.0197058 
0.0622205 0.0293461 0.01986 
0.0602834 0.0340666 0.0191072 
0.0200871 -0.0125822 0.0243937 
-0.00703319 -0.00782821 0.0257586 
0.0340142 -0.00478599 0.02181 
0.0388443 0.0670284 0.0147458 
0.0107773 -0.0140104 0.0268116 
-0.0170121 0.0666558 0.028992 
-0.0194453 -0.004541 0.0290319 
0.0238535 -0.00756667 0.0199654 
0.0246027 0.0219383 0.0253991 
0.0299532 0.0650963 0.0207722 
0.0317854 0.0644002 0.0269364 
-0.0165068 -0.010718 0.0241182 
0.0255611 -0.00697872 0.0270248 
0.0302801 0.058294 0.0259182 
0.011507 -0.00977331 0.0294564 
0.0328586 0.0667824 0.0245127 
0.0236305 -0.00338732 0.0256702 
-0.00933648 -0.00446473 0.0285665 
0.0271273 -0.00172341 0.0282245 
-0.0112267 0.0641649 0.0298908 
0.00264747 -0.0126836 0.0286862 
-0.00171904 -0.00660531 0.0289639 
-0.0208195 0.0194677 0.0286815 
-0.00256787 -0.00997863 0.0299533 
0.0119025 -0.00748912 0.0271673 
0.0206063 0.0654307 0.027841 
-0.0219785 0.0648746 0.0305426 
0.0147892 -0.00706116 0.0324251 
-0.00485251 -0.00224788 0.0310737 
0.0141365 -0.00325801 0.0303759 
1.8635e-05 0.0645637 0.0324521 
-0.0114975 -0.00522881 0.0328422 
0.0226891 0.0583955 0.0311863 
0.0114614 0.0640536 0.0315147 
0.0198932 -0.00405155 0.0325025 
0.00555855 -0.000141083 0.0319224 
0.0217156 0.0645216 0.0339175 
-0.0131312 0.0655776 0.0349166 
0.00188077 0.0667086 0.0343012 
-0.0024404 -0.00495483 0.0354665 
0.0147755 0.0582802 0.034472 
-0.00393631 0.0669754 0.0360947 
-0.019831 0.0668408 0.0301589 
0.0139005 0.066693 0.0321434 
0.0272849 0.0658651 0.0301168 
-0.0165438 0.0580624 0.0314167 
-0.0102623 0.0117361 0.0339712 
-0.00863586 0.0581732 0.034563 
0.00441064 -0.00407163 0.0359398 
0.0111919 -0.00509257 0.035219 
0.00407618 0.0582186 0.0362997 
0.0120938 0.066136 0.036551 
0.0164077 0.0671558 0.0340473 
-0.00415443 0.0639093 0.0375733 
0.00946137 0.0640608 0.0376639 
-0.00211038 0.0658187 0.0377809 
0.0400359 0.0658196 -0.00846355 
0.060484 0.0110118 0.00995512 
0.0396826 -0.0025718 -0.00696067 
0.0023429 -0.010311 -0.0029497 
0.026059 -0.0132355 0.0192696 
0.0370726 0.0246992 0.00968293 
0.0394848 -0.00164055 6.89748e-05 
0.0390099 0.0342627 0.00421279 
0.0397132 0.0215042 -0.00071653 
-0.0129579 -0.0072502 0.0237952 
-0.0150861 -0.00834709 0.018243 
-0.0131208 -0.00208685 0.0278519 
-0.0165651 -0.00580564 0.0209976 
-0.0220418 -0.0047566 0.0198541 
-0.0200733 -0.00792008 0.0175926 
-0.016629 -0.008512 0.0107014 
3 3 6 5 
3 6 3 0 
3 6 0 1 
3 0 3 7 
3 11 0 7 
3 1 0 11 
3 2 4 5 
3 6 2 5 
3 9 7 3 
3 4 12 5 
3 5 12 3 
3 54 7 9 
3 4 2 8 
3 19 12 4 
3 9 3 12 
3 11 7 15 
3 16 11 15 
3 13 2 6 
3 19 27 12 
3 9 12 42 
3 1 10 6 
3 18 16 15 
3 10 1 11 
3 7 54 34 
3 15 7 34 
3 13 6 14 
3 6 10 14 
3 21 16 18 
3 22 11 16 
3 4 8 26 
3 8 2 13 
3 17 20 18 
3 27 42 12 
3 20 21 18 
3 42 29 9 
3 29 54 9 
3 15 34 18 
3 4 26 19 
3 40 26 8 
3 20 17 23 
3 32 21 20 
3 17 18 23 
3 25 10 11 
3 21 22 16 
3 22 25 11 
3 36 19 26 
3 31 37 20 
3 37 32 20 
3 23 18 24 
3 18 34 24 
3 8 13 40 
3 23 31 20 
3 33 13 14 
3 32 28 21 
3 14 10 38 
3 35 30 26 
3 26 40 35 
3 19 36 27 
3 41 23 24 
3 27 47 42 
3 28 32 51 
3 24 34 65 
3 30 39 26 
3 26 39 36 
3 23 79 31 
3 37 51 32 
3 33 14 38 
3 51 52 28 
3 43 38 10 
3 10 25 43 
3 28 58 21 
3 39 30 44 
3 37 50 51 
3 41 24 65 
3 29 42 62 
3 62 70 29 
3 22 21 58 
3 58 75 22 
3 35 44 30 
3 49 36 39 
3 61 79 23 
3 56 37 31 
3 50 37 56 
3 13 45 40 
3 45 13 33 
3 41 61 23 
3 47 27 57 
3 47 62 42 
3 29 59 54 
3 34 54 65 
3 25 48 43 
3 25 22 97 
3 46 44 35 
3 35 40 46 
3 56 31 79 
3 33 38 63 
3 52 58 28 
3 25 97 48 
3 46 40 45 
3 41 65 53 
3 62 47 57 
3 66 50 56 
3 51 50 66 
3 52 51 67 
3 39 60 49 
3 55 36 49 
3 27 36 55 
3 51 66 67 
3 58 52 67 
3 64 53 65 
3 70 59 29 
3 97 22 75 
3 72 44 46 
3 46 45 83 
3 57 27 55 
3 33 63 74 
3 38 43 48 
3 54 59 65 
3 39 101 60 
3 55 49 60 
3 61 41 76 
3 53 76 41 
3 57 91 62 
3 46 83 72 
3 45 33 73 
3 80 59 70 
3 65 59 90 
3 44 101 39 
3 33 74 73 
3 66 71 67 
3 53 64 69 
3 84 70 62 
3 64 65 77 
3 80 90 59 
3 65 90 77 
3 82 44 89 
3 38 74 63 
3 68 38 48 
3 48 97 113 
3 72 89 44 
3 73 83 45 
3 79 61 94 
3 124 71 66 
3 69 64 77 
3 67 85 58 
3 58 85 75 
3 56 124 66 
3 55 102 57 
3 76 53 69 
3 84 62 91 
3 68 74 38 
3 48 78 68 
3 70 84 80 
3 75 93 97 
3 83 87 72 
3 61 76 94 
3 57 102 91 
3 85 67 71 
3 75 85 93 
3 78 48 113 
3 60 86 55 
3 44 88 101 
3 102 55 98 
3 60 101 86 
3 88 44 81 
3 82 81 44 
3 84 104 80 
3 80 104 90 
3 55 86 98 
3 103 73 74 
3 69 95 76 
3 77 95 69 
3 93 85 71 
3 68 103 74 
3 73 108 83 
3 73 103 96 
3 95 94 76 
3 91 119 84 
3 77 90 114 
3 81 82 88 
3 119 91 102 
3 124 136 71 
3 92 77 114 
3 71 111 93 
3 92 95 77 
3 119 100 84 
3 100 112 84 
3 84 112 104 
3 90 105 114 
3 72 87 89 
3 108 87 83 
3 56 79 238 
3 73 96 108 
3 79 94 135 
3 90 104 105 
3 93 120 97 
3 117 99 95 
3 71 136 111 
3 68 78 118 
3 107 98 86 
3 98 109 102 
3 124 56 238 
3 95 92 117 
3 93 111 120 
3 68 118 122 
3 109 98 107 
3 122 103 68 
3 106 118 78 
3 106 78 113 
3 113 97 120 
3 110 99 117 
3 92 114 117 
3 100 119 141 
3 82 387 88 
3 79 135 238 
3 99 110 115 
3 113 120 384 
3 101 88 387 
3 121 96 103 
3 112 127 105 
3 89 134 82 
3 134 387 82 
3 110 117 116 
3 136 132 111 
3 103 122 121 
3 141 112 100 
3 86 144 107 
3 101 187 86 
3 96 138 108 
3 121 138 96 
3 87 134 89 
3 102 152 119 
3 154 141 119 
3 112 137 127 
3 126 87 108 
3 387 187 101 
3 102 109 152 
3 154 119 152 
3 131 134 87 
3 108 138 126 
3 136 124 244 
3 123 138 121 
3 384 120 111 
3 112 141 137 
3 140 122 118 
3 187 144 86 
3 135 115 110 
3 117 125 116 
3 117 129 125 
3 111 132 384 
3 114 105 128 
3 107 144 130 
3 121 122 142 
3 117 114 129 
3 128 129 114 
3 105 127 186 
3 128 105 186 
3 140 118 106 
3 109 107 130 
3 109 130 150 
3 109 150 152 
3 137 139 127 
3 106 113 243 
3 126 131 87 
3 166 123 121 
3 132 386 384 
3 122 140 133 
3 127 139 146 
3 186 127 146 
3 113 384 181 
3 238 135 399 
3 238 244 124 
3 110 116 147 
3 153 132 136 
3 125 129 159 
3 142 122 133 
3 135 110 173 
3 157 132 153 
3 157 386 132 
3 137 141 145 
3 137 145 139 
3 384 148 181 
3 153 136 244 
3 116 125 147 
3 157 390 386 
3 121 171 166 
3 121 142 171 
3 384 386 392 
3 141 151 145 
3 139 145 146 
3 106 164 140 
3 140 143 133 
3 113 181 243 
3 106 243 164 
3 399 135 173 
3 173 110 147 
3 392 148 384 
3 129 128 160 
3 142 158 171 
3 142 133 149 
3 165 134 131 
3 130 169 150 
3 165 387 134 
3 125 159 147 
3 386 390 392 
3 141 154 151 
3 169 130 144 
3 138 123 156 
3 154 182 151 
3 146 145 186 
3 140 164 143 
3 126 155 131 
3 170 150 169 
3 152 182 154 
3 142 149 158 
3 392 191 148 
3 133 168 149 
3 126 138 155 
3 138 156 155 
3 182 152 150 
3 161 173 147 
3 162 156 123 
3 244 201 153 
3 153 201 157 
3 129 160 159 
3 162 123 166 
3 157 201 390 
3 148 191 235 
3 243 196 164 
3 150 170 182 
3 161 147 159 
3 145 234 186 
3 148 235 181 
3 166 171 174 
3 149 203 158 
3 222 165 131 
3 159 160 163 
3 179 149 167 
3 185 149 168 
3 145 151 220 
3 133 143 168 
3 174 171 176 
3 171 158 178 
3 203 149 172 
3 172 149 179 
3 143 200 168 
3 169 144 212 
3 171 175 176 
3 175 171 177 
3 177 171 178 
3 179 167 180 
3 180 167 195 
3 221 235 191 
3 212 144 237 
3 187 237 144 
3 170 169 212 
3 183 162 166 
3 178 158 210 
3 210 158 184 
3 158 203 184 
3 234 145 220 
3 200 143 164 
3 128 186 282 
3 128 282 160 
3 235 243 181 
3 230 161 159 
3 194 179 180 
3 194 180 198 
3 180 195 189 
3 168 200 190 
3 163 160 192 
3 200 164 196 
3 222 131 155 
3 212 236 170 
3 170 236 182 
3 183 166 174 
3 177 178 197 
3 184 203 261 
3 151 182 225 
3 179 204 172 
3 198 180 189 
3 168 190 185 
3 222 155 193 
3 173 161 398 
3 183 156 162 
3 174 176 202 
3 208 175 177 
3 210 197 178 
3 159 163 230 
3 199 198 189 
3 233 189 195 
3 233 195 185 
3 206 185 190 
3 192 160 282 
3 196 243 331 
3 182 236 223 
3 175 207 176 
3 177 197 215 
3 197 210 224 
3 210 184 246 
3 231 198 199 
3 232 198 231 
3 211 199 205 
3 204 203 172 
3 179 194 204 
3 198 232 194 
3 205 199 189 
3 191 280 221 
3 234 297 186 
3 221 305 235 
3 193 155 248 
3 155 156 248 
3 244 238 264 
3 244 265 201 
3 201 265 249 
3 214 183 174 
3 207 202 176 
3 207 175 208 
3 208 177 209 
3 216 177 215 
3 385 216 215 
3 225 182 223 
3 184 261 260 
3 205 240 211 
3 185 206 233 
3 387 213 187 
3 165 213 387 
3 399 173 398 
3 174 256 214 
3 202 256 174 
3 215 197 224 
3 279 210 246 
3 224 210 279 
3 209 216 217 
3 226 217 216 
3 226 216 385 
3 229 211 228 
3 389 188 391 
3 229 231 199 
3 211 229 199 
3 240 218 211 
3 219 189 233 
3 206 242 270 
3 206 190 242 
3 196 298 200 
3 246 184 260 
3 217 226 227 
3 226 228 218 
3 226 218 227 
3 228 211 218 
3 230 163 192 
3 389 280 188 
3 231 277 232 
3 261 203 241 
3 189 219 205 
3 151 225 220 
3 214 275 183 
3 208 259 207 
3 259 208 209 
3 215 224 267 
3 247 226 385 
3 228 274 229 
3 218 240 239 
3 274 231 229 
3 204 241 203 
3 194 252 204 
3 232 252 194 
3 205 219 285 
3 278 206 270 
3 233 206 278 
3 190 254 242 
3 190 200 254 
3 234 220 296 
3 282 186 297 
3 243 235 305 
3 237 236 212 
3 238 399 264 
3 397 398 161 
3 230 397 161 
3 245 249 389 
3 224 279 290 
3 246 260 251 
3 215 267 385 
3 217 268 209 
3 223 266 225 
3 227 218 239 
3 274 277 231 
3 205 285 240 
3 241 204 253 
3 219 233 286 
3 220 225 296 
3 221 280 305 
3 196 331 298 
3 243 305 331 
3 237 187 213 
3 388 222 193 
3 323 223 236 
3 265 244 335 
3 156 183 248 
3 202 207 257 
3 214 256 250 
3 251 289 246 
3 217 227 268 
3 299 226 247 
3 192 281 230 
3 239 240 269 
3 232 277 252 
3 252 253 204 
3 233 278 286 
3 222 255 165 
3 335 244 264 
3 256 202 257 
3 256 258 250 
3 258 251 250 
3 260 250 251 
3 279 246 289 
3 290 267 224 
3 209 268 272 
3 280 389 249 
3 226 299 228 
3 227 239 273 
3 299 274 228 
3 260 261 275 
3 241 262 261 
3 261 262 263 
3 262 270 263 
3 242 263 270 
3 200 320 254 
3 234 313 297 
3 222 388 255 
3 237 339 236 
3 265 287 249 
3 250 275 214 
3 259 257 207 
3 257 271 256 
3 271 258 256 
3 271 251 258 
3 266 223 323 
3 272 259 209 
3 385 267 293 
3 385 293 247 
3 230 281 302 
3 268 227 273 
3 239 269 276 
3 240 285 269 
3 304 262 241 
3 241 253 304 
3 219 295 285 
3 295 219 286 
3 270 262 278 
3 234 296 313 
3 200 298 320 
3 193 248 388 
3 264 399 394 
3 183 275 330 
3 397 230 302 
3 289 251 271 
3 291 267 290 
3 273 239 276 
3 274 300 277 
3 252 277 284 
3 284 253 252 
3 242 261 263 
3 304 278 262 
3 301 296 225 
3 393 394 396 
3 183 330 248 
3 288 271 257 
3 271 288 289 
3 279 289 290 
3 250 260 275 
3 293 267 291 
3 268 283 272 
3 293 309 247 
3 309 299 247 
3 249 337 280 
3 261 254 275 
3 301 225 266 
3 284 304 253 
3 213 314 237 
3 236 339 323 
3 265 335 287 
3 259 272 292 
3 283 268 273 
3 277 300 311 
3 277 311 284 
3 295 294 285 
3 242 254 261 
3 304 303 278 
3 278 303 286 
3 295 286 303 
3 316 288 257 
3 259 316 257 
3 272 283 292 
3 337 249 287 
3 274 299 300 
3 285 294 269 
3 284 311 303 
3 284 303 304 
3 321 305 280 
3 213 315 314 
3 323 339 334 
3 292 316 259 
3 289 288 307 
3 289 307 290 
3 290 307 291 
3 291 308 293 
3 293 308 309 
3 273 317 283 
3 273 276 317 
3 295 318 294 
3 318 295 303 
3 281 192 319 
3 331 343 298 
3 394 393 329 
3 288 316 307 
3 307 308 291 
3 324 309 308 
3 310 283 317 
3 350 266 323 
3 309 324 327 
3 309 327 299 
3 299 327 300 
3 254 330 275 
3 276 269 312 
3 300 327 311 
3 294 312 269 
3 294 318 312 
3 311 318 303 
3 302 281 319 
3 337 321 280 
3 321 331 305 
3 165 255 332 
3 314 339 237 
3 248 322 388 
3 264 394 329 
3 396 395 393 
3 306 395 396 
3 307 316 308 
3 324 308 316 
3 283 310 292 
3 337 287 336 
3 276 312 317 
3 327 312 311 
3 312 318 311 
3 213 165 332 
3 287 335 344 
3 292 325 316 
3 292 310 325 
3 316 325 324 
3 326 324 325 
3 327 324 326 
3 317 312 326 
3 326 312 327 
3 341 254 320 
3 319 192 333 
3 192 282 333 
3 370 297 313 
3 332 315 213 
3 388 328 255 
3 388 322 328 
3 335 264 352 
3 340 248 330 
3 317 325 310 
3 326 325 317 
3 350 301 266 
3 341 330 254 
3 297 333 282 
3 320 298 343 
3 328 332 255 
3 340 322 248 
3 329 393 345 
3 344 336 287 
3 331 321 343 
3 359 334 339 
3 395 345 393 
3 352 344 335 
3 350 323 334 
3 296 354 313 
3 343 338 320 
3 333 297 370 
3 315 351 314 
3 314 351 339 
3 349 264 329 
3 352 264 349 
3 302 319 347 
3 336 353 337 
3 301 354 296 
3 353 321 337 
3 328 322 342 
3 345 349 329 
3 344 352 357 
3 330 341 346 
3 395 302 347 
3 373 354 301 
3 338 341 320 
3 319 333 347 
3 313 354 370 
3 332 348 315 
3 328 342 332 
3 359 339 351 
3 373 301 350 
3 348 351 315 
3 330 362 340 
3 362 330 346 
3 395 356 345 
3 332 342 348 
3 348 342 351 
3 355 322 340 
3 349 345 356 
3 357 336 344 
3 334 374 350 
3 395 347 356 
3 338 343 372 
3 359 351 367 
3 357 349 356 
3 352 349 357 
3 357 361 353 
3 353 336 357 
3 333 358 347 
3 343 321 380 
3 322 355 342 
3 356 363 357 
3 359 374 334 
3 341 360 346 
3 374 373 350 
3 356 347 358 
3 370 354 365 
3 353 361 371 
3 321 353 371 
3 343 380 372 
3 377 367 351 
3 342 377 351 
3 355 340 362 
3 363 356 358 
3 346 360 362 
3 374 375 373 
3 364 341 338 
3 372 364 338 
3 369 333 370 
3 371 380 321 
3 355 377 342 
3 361 357 363 
3 363 358 361 
3 341 364 360 
3 373 365 354 
3 358 333 366 
3 367 374 359 
3 369 370 365 
3 361 358 366 
3 361 366 371 
3 366 333 369 
3 367 377 376 
3 362 360 368 
3 381 373 375 
3 365 373 381 
3 366 380 371 
3 355 362 377 
3 374 367 375 
3 360 364 368 
3 380 366 369 
3 372 380 364 
3 376 378 367 
3 368 377 362 
3 367 378 375 
3 381 383 365 
3 369 365 383 
3 364 380 379 
3 377 378 376 
3 368 378 377 
3 378 381 375 
3 382 378 368 
3 368 364 382 
3 378 382 381 
3 379 382 364 
3 380 369 383 
3 379 380 383 
3 381 382 383 
3 382 379 383 
3 216 209 177 
3 185 195 149 
3 167 149 195 
3 188 280 191 
3 104 112 105 
3 392 391 191 
3 245 390 249 
3 391 188 191 
3 390 201 249 
3 392 390 245 
3 389 391 392 
3 392 245 389 
3 99 94 95 
3 99 115 94 
3 115 135 94 
3 306 302 395 
3 394 399 398 
3 396 397 306 
3 302 306 397 
3 397 396 398 
3 396 394 398 
